<svg xmlns="http://www.w3.org/2000/svg" width="1180" height="800" viewBox="0 0 1180 800" font-family="DejaVu Sans, Arial, sans-serif"><defs><marker id="arw" viewBox="0 0 12 12" refX="10" refY="6" markerWidth="9" markerHeight="9" orient="auto-start-reverse" markerUnits="userSpaceOnUse"><path d="M1,1 L11,6 L1,11 z" fill="#334155"/></marker></defs><rect x="0" y="0" width="1180" height="800" fill="#ffffff"/><text x="590.0" y="40" font-size="21" font-weight="700" text-anchor="middle" fill="#1f2937">DFD Level 1</text><rect x="55.0" y="123.0" width="130" height="54" rx="4" fill="#eef7f0" stroke="#059669" stroke-width="2"/><text x="120" y="155" font-size="15" font-weight="700" text-anchor="middle" fill="#1f2937">USER</text><rect x="55.0" y="483.0" width="130" height="54" rx="4" fill="#eef7f0" stroke="#059669" stroke-width="2"/><text x="120" y="515" font-size="15" font-weight="700" text-anchor="middle" fill="#1f2937">ADMIN</text><circle cx="380" cy="175" r="78" fill="#e8f1fd" stroke="#2563eb" stroke-width="2"/><circle cx="380" cy="113" r="13" fill="#2563eb"/><text x="380" y="118" font-size="13" font-weight="700" text-anchor="middle" fill="#ffffff">1.0</text><text x="380" y="187" font-size="15" font-weight="600" text-anchor="middle" fill="#1f2937"><tspan x="380" dy="-9.0">User</tspan><tspan x="380" dy="18.0">Authentication</tspan></text><circle cx="720" cy="175" r="78" fill="#e8f1fd" stroke="#2563eb" stroke-width="2"/><circle cx="720" cy="113" r="13" fill="#2563eb"/><text x="720" y="118" font-size="13" font-weight="700" text-anchor="middle" fill="#ffffff">2.0</text><text x="720" y="187" font-size="15" font-weight="600" text-anchor="middle" fill="#1f2937"><tspan x="720" dy="-9.0">Exam</tspan><tspan x="720" dy="18.0">Process</tspan></text><circle cx="400" cy="470" r="82" fill="#e8f1fd" stroke="#2563eb" stroke-width="2"/><circle cx="400" cy="404" r="13" fill="#2563eb"/><text x="400" y="409" font-size="13" font-weight="700" text-anchor="middle" fill="#ffffff">3.0</text><text x="400" y="482" font-size="15" font-weight="600" text-anchor="middle" fill="#1f2937"><tspan x="400" dy="-9.0">Admin</tspan><tspan x="400" dy="18.0">Management</tspan></text><circle cx="720" cy="470" r="82" fill="#e8f1fd" stroke="#2563eb" stroke-width="2"/><circle cx="720" cy="404" r="13" fill="#2563eb"/><text x="720" y="409" font-size="13" font-weight="700" text-anchor="middle" fill="#ffffff">4.0</text><text x="720" y="482" font-size="15" font-weight="600" text-anchor="middle" fill="#1f2937"><tspan x="720" dy="-9.0">Result</tspan><tspan x="720" dy="18.0">Processing</tspan></text><rect x="885.0" y="446.0" width="160" height="48" fill="#fff6e6" stroke="#d97706" stroke-width="2"/><line x1="919.0" y1="446.0" x2="919.0" y2="494.0" stroke="#d97706" stroke-width="2"/><text x="902.0" y="475" font-size="13" font-weight="700" text-anchor="middle" fill="#d97706">D3</text><text x="982.0" y="475" font-size="14.5" font-weight="700" text-anchor="middle" fill="#1f2937">exam_results</text><rect x="277.5" y="682.0" width="165" height="46" fill="#fff6e6" stroke="#d97706" stroke-width="2"/><line x1="311.5" y1="682.0" x2="311.5" y2="728.0" stroke="#d97706" stroke-width="2"/><text x="294.5" y="710" font-size="13" font-weight="700" text-anchor="middle" fill="#d97706">D1</text><text x="377.0" y="710" font-size="14.5" font-weight="700" text-anchor="middle" fill="#1f2937">exam_system</text><rect x="525.0" y="682.0" width="150" height="46" fill="#fff6e6" stroke="#d97706" stroke-width="2"/><line x1="559.0" y1="682.0" x2="559.0" y2="728.0" stroke="#d97706" stroke-width="2"/><text x="542.0" y="710" font-size="13" font-weight="700" text-anchor="middle" fill="#d97706">D2</text><text x="617.0" y="710" font-size="14.5" font-weight="700" text-anchor="middle" fill="#1f2937">exam_data</text><line x1="185" y1="150" x2="300" y2="172" stroke="#334155" stroke-width="1.8" marker-end="url(#arw)"/><text x="240" y="138" font-size="13.5" text-anchor="middle" fill="#ffffff" stroke="#ffffff" stroke-width="4" paint-order="stroke">Login</text><text x="240" y="138" font-size="13.5" font-weight="600" text-anchor="middle" fill="#b91c1c">Login</text><line x1="185" y1="510" x2="322" y2="480" stroke="#334155" stroke-width="1.8" marker-end="url(#arw)"/><text x="232" y="500" font-size="13.5" text-anchor="middle" fill="#ffffff" stroke="#ffffff" stroke-width="4" paint-order="stroke">Manages Users</text><text x="232" y="500" font-size="13.5" font-weight="600" text-anchor="middle" fill="#b91c1c">Manages Users</text><line x1="458" y1="175" x2="640" y2="175" stroke="#334155" stroke-width="1.8" marker-end="url(#arw)"/><text x="548" y="160" font-size="13.5" text-anchor="middle" fill="#ffffff" stroke="#ffffff" stroke-width="4" paint-order="stroke">Start Exam</text><text x="548" y="160" font-size="13.5" font-weight="600" text-anchor="middle" fill="#b91c1c">Start Exam</text><line x1="720" y1="253" x2="720" y2="386" stroke="#334155" stroke-width="1.8" marker-end="url(#arw)"/><text x="720" y="320" font-size="13.5" text-anchor="middle" fill="#ffffff" stroke="#ffffff" stroke-width="4" paint-order="stroke" transform="rotate(90 720 320)">Submit Answers</text><text x="720" y="320" font-size="13.5" font-weight="600" text-anchor="middle" fill="#b91c1c" transform="rotate(90 720 320)">Submit Answers</text><line x1="802" y1="470" x2="883" y2="470" stroke="#334155" stroke-width="1.8" marker-end="url(#arw)"/><text x="843" y="456" font-size="13.5" text-anchor="middle" fill="#ffffff" stroke="#ffffff" stroke-width="4" paint-order="stroke">Store Results</text><text x="843" y="456" font-size="13.5" font-weight="600" text-anchor="middle" fill="#b91c1c">Store Results</text><polyline points="340,240 300,300 300,682" fill="none" stroke="#334155" stroke-width="1.8" marker-end="url(#arw)"/><text x="300" y="360" font-size="13.5" text-anchor="middle" fill="#ffffff" stroke="#ffffff" stroke-width="4" paint-order="stroke" transform="rotate(90 300 360)">Stores User Info</text><text x="300" y="360" font-size="13.5" font-weight="600" text-anchor="middle" fill="#b91c1c" transform="rotate(90 300 360)">Stores User Info</text><line x1="392" y1="552" x2="374" y2="682" stroke="#334155" stroke-width="1.8" marker-end="url(#arw)"/><text x="300" y="612" font-size="13.5" text-anchor="middle" fill="#ffffff" stroke="#ffffff" stroke-width="4" paint-order="stroke">Modify User Data</text><text x="300" y="612" font-size="13.5" font-weight="600" text-anchor="middle" fill="#b91c1c">Modify User Data</text><line x1="468" y1="516" x2="556" y2="683" stroke="#334155" stroke-width="1.8" marker-end="url(#arw)"/><text x="560" y="600" font-size="13.5" text-anchor="middle" fill="#ffffff" stroke="#ffffff" stroke-width="4" paint-order="stroke">Modify Questions</text><text x="560" y="600" font-size="13.5" font-weight="600" text-anchor="middle" fill="#b91c1c">Modify Questions</text><polyline points="798,175 1095,175 1095,705 678,705" fill="none" stroke="#334155" stroke-width="1.8" marker-end="url(#arw)"/><text x="1108" y="445" font-size="13.5" text-anchor="middle" fill="#ffffff" stroke="#ffffff" stroke-width="4" paint-order="stroke" transform="rotate(90 1108 445)">Fetch Questions</text><text x="1108" y="445" font-size="13.5" font-weight="600" text-anchor="middle" fill="#b91c1c" transform="rotate(90 1108 445)">Fetch Questions</text><polyline points="720,552 720,758 120,758 120,179" fill="none" stroke="#334155" stroke-width="1.8" marker-end="url(#arw)"/><text x="410" y="776" font-size="13.5" text-anchor="middle" fill="#ffffff" stroke="#ffffff" stroke-width="4" paint-order="stroke">View Results</text><text x="410" y="776" font-size="13.5" font-weight="600" text-anchor="middle" fill="#b91c1c">View Results</text></svg>