<svg xmlns="http://www.w3.org/2000/svg" width="960" height="460" viewBox="0 0 960 460" font-family="DejaVu Sans, Arial, sans-serif"><defs><marker id="arw" viewBox="0 0 12 12" refX="10" refY="6" markerWidth="9" markerHeight="9" orient="auto-start-reverse" markerUnits="userSpaceOnUse"><path d="M1,1 L11,6 L1,11 z" fill="#334155"/></marker></defs><rect x="0" y="0" width="960" height="460" fill="#ffffff"/><text x="480.0" y="40" font-size="21" font-weight="700" text-anchor="middle" fill="#1f2937">DFD Level 0 &#8212; Context Diagram</text><rect x="75.0" y="121.0" width="150" height="58" rx="4" fill="#eef7f0" stroke="#059669" stroke-width="2"/><text x="150" y="155" font-size="15" font-weight="700" text-anchor="middle" fill="#1f2937">Users</text><rect x="75.0" y="291.0" width="150" height="58" rx="4" fill="#eef7f0" stroke="#059669" stroke-width="2"/><text x="150" y="325" font-size="15" font-weight="700" text-anchor="middle" fill="#1f2937">Admin</text><circle cx="480" cy="235" r="120" fill="#e8f1fd" stroke="#2563eb" stroke-width="2.5"/><circle cx="480" cy="150" r="14" fill="#2563eb"/><text x="480" y="155" font-size="14" font-weight="700" text-anchor="middle" fill="#fff">0</text><text x="480" y="250" font-size="18" font-weight="700" text-anchor="middle" fill="#1f2937"><tspan x="480" dy="-10.799999999999999">AI Voice-Assisted</tspan><tspan x="480" dy="21.599999999999998">Exam System</tspan></text><rect x="735.0" y="207.0" width="170" height="56" fill="#fff6e6" stroke="#d97706" stroke-width="2"/><line x1="769.0" y1="207.0" x2="769.0" y2="263.0" stroke="#d97706" stroke-width="2"/><text x="752.0" y="240" font-size="13" font-weight="700" text-anchor="middle" fill="#d97706">D</text><text x="837.0" y="240" font-size="14.5" font-weight="700" text-anchor="middle" fill="#1f2937">exam_system</text><line x1="225" y1="150" x2="372" y2="205" stroke="#334155" stroke-width="1.8" marker-end="url(#arw)"/><text x="300" y="150" font-size="13.5" text-anchor="middle" fill="#ffffff" stroke="#ffffff" stroke-width="4" paint-order="stroke">Takes Exam</text><text x="300" y="150" font-size="13.5" font-weight="600" text-anchor="middle" fill="#b91c1c">Takes Exam</text><line x1="225" y1="320" x2="372" y2="268" stroke="#334155" stroke-width="1.8" marker-end="url(#arw)"/><text x="300" y="322" font-size="13.5" text-anchor="middle" fill="#ffffff" stroke="#ffffff" stroke-width="4" paint-order="stroke">Manages Ques. &amp; Users</text><text x="300" y="322" font-size="13.5" font-weight="600" text-anchor="middle" fill="#b91c1c">Manages Ques. &amp; Users</text><line x1="600" y1="210" x2="735" y2="212" stroke="#334155" stroke-width="1.8" marker-end="url(#arw)"/><text x="668" y="196" font-size="13.5" text-anchor="middle" fill="#ffffff" stroke="#ffffff" stroke-width="4" paint-order="stroke">Stores Data</text><text x="668" y="196" font-size="13.5" font-weight="600" text-anchor="middle" fill="#b91c1c">Stores Data</text><line x1="735" y1="258" x2="600" y2="260" stroke="#334155" stroke-width="1.8" marker-end="url(#arw)"/><text x="668" y="280" font-size="13.5" text-anchor="middle" fill="#ffffff" stroke="#ffffff" stroke-width="4" paint-order="stroke">Retrieves Data</text><text x="668" y="280" font-size="13.5" font-weight="600" text-anchor="middle" fill="#b91c1c">Retrieves Data</text></svg>